<svg height="512" viewBox="0 0 128 128" width="512" xmlns="http://www.w3.org/2000/svg"><g><g fill="#3ea2e5"><rect height="88.499" rx="8.676" width="115.387" x="6.306" y="6.306"/><path d="m48.188 94.806h31.624v19.646h-31.624z"/><path d="m36.537 114.452h54.926v7.242h-54.926z"/></g><path d="m17.37 17.37h93.261v66.373h-93.261z" fill="#dfeef4"/><circle cx="64" cy="50.437" fill="#f2da30" r="21.864"/><path d="m85.32 45.62c-2.34-2.31-6.34-4.1-11.38-5.12-1.02-5.04-2.82-9.05-5.11-11.39a21.871 21.871 0 0 0 -9.66 0c-2.29 2.34-4.09 6.35-5.11 11.39-5.04 1.02-9.04 2.81-11.38 5.12a21.826 21.826 0 0 0 0 9.65c2.34 2.29 6.34 4.09 11.38 5.11 1.03 5.04 2.82 9.05 5.12 11.38a21.781 21.781 0 0 0 9.64 0c2.3-2.33 4.09-6.34 5.12-11.38 5.04-1.02 9.04-2.82 11.38-5.11a21.826 21.826 0 0 0 0-9.65zm-31.85 11c-5.84-1.42-9.58-3.89-9.58-6.18s3.74-4.77 9.58-6.19a54.824 54.824 0 0 0 0 12.37zm10.53-26.3c2.3 0 4.76 3.75 6.18 9.58a54.736 54.736 0 0 0 -12.36 0c1.42-5.83 3.88-9.58 6.18-9.58zm0 40.23c-2.3 0-4.76-3.74-6.18-9.58a54.736 54.736 0 0 0 12.36 0c-1.42 5.84-3.88 9.58-6.18 9.58zm6.89-13.23a47.722 47.722 0 0 1 -13.78 0 48.616 48.616 0 0 1 0-13.77 47.722 47.722 0 0 1 13.78 0 48.616 48.616 0 0 1 0 13.77zm3.64-.7a54.824 54.824 0 0 0 0-12.37c5.84 1.42 9.58 3.89 9.58 6.19s-3.74 4.76-9.58 6.18z" fill="#ddc226"/></g></svg>