<svg height="512" viewBox="0 0 128 128" width="512" xmlns="http://www.w3.org/2000/svg"><g><path d="m6.306 39.363h115.387v82.331h-115.387z" fill="#dfeef4"/><path d="m6.306 15.838h115.387v23.525h-115.387z" fill="#f45858"/><g fill="#6d7a84"><path d="m60.269 6.306h7.462v19.062h-7.462z"/><path d="m90.052 6.306h7.462v19.062h-7.462z"/><path d="m30.486 6.306h7.462v19.062h-7.462z"/></g><circle cx="64" cy="80.528" fill="#f2da30" r="29.783"/><path d="m83.845 78.778h-13.324a6.772 6.772 0 0 0 -4.771-4.77v-13.324a1.75 1.75 0 0 0 -3.5 0v13.324a6.754 6.754 0 1 0 8.271 8.27h13.324a1.75 1.75 0 0 0 0-3.5zm-19.845 5.009a3.259 3.259 0 1 1 3.259-3.259 3.263 3.263 0 0 1 -3.259 3.259z" fill="#6d7a84"/><path d="m113.107 114.973a1.751 1.751 0 0 1 -1.75-1.75v-19.956a1.75 1.75 0 0 1 3.5 0v19.956a1.75 1.75 0 0 1 -1.75 1.75z" fill="#c8d7db"/><path d="m113.107 87.4a1.75 1.75 0 0 1 -1.75-1.75v-5.122a1.75 1.75 0 1 1 3.5 0v5.124a1.749 1.749 0 0 1 -1.75 1.748z" fill="#c8d7db"/></g></svg>